<svg width="32" height="32" viewBox="0 0 32 32" fill="none" xmlns="http://www.w3.org/2000/svg">
<rect width="32" height="32" fill="#81525F"/>
<path fill-rule="evenodd" clip-rule="evenodd" d="M15.342 16.6584C13.2052 18.7952 13.2046 22.2603 15.342 24.3976C13.2052 26.5344 9.74001 26.535 7.60269 24.3976C5.46555 22.2603 5.46599 18.7951 7.60269 16.6584C9.73945 18.7952 13.2052 18.7952 15.342 16.6584ZM24.3976 16.6584C26.5343 18.7951 26.5348 22.2593 24.3976 24.3967C22.2603 26.534 18.7961 26.5335 16.6593 24.3967C18.7956 22.2599 18.7957 18.7951 16.6593 16.6584C18.7961 18.7949 22.2604 18.7955 24.3976 16.6584ZM15.4201 15.4201C15.7407 15.0995 16.2606 15.0995 16.5812 15.4201C16.9017 15.7407 16.9018 16.2606 16.5812 16.5812C16.2606 16.9017 15.7407 16.9017 15.4201 16.5812C15.0995 16.2606 15.0996 15.7407 15.4201 15.4201ZM7.60367 7.60271C9.74033 5.46603 13.2052 5.4662 15.342 7.60271V7.60368C13.2053 9.74047 13.2053 13.2052 15.342 15.342C13.2052 13.2052 9.73998 13.2046 7.60269 15.342C5.46687 13.2046 5.46704 9.73938 7.60367 7.60271ZM16.6593 7.60271C18.7961 5.46612 22.2604 5.46541 24.3976 7.60271C26.5349 9.74007 26.5344 13.2052 24.3976 15.342C22.2609 13.2052 18.7961 13.2052 16.6593 15.342C18.796 13.2052 18.7964 9.74008 16.6593 7.60271Z" fill="#DCC7BF"/>
</svg>
